<mxfile host="app.diagrams.net" agent="Mozilla/5.0 (Windows NT 10.0; Win64; x64) AppleWebKit/537.36 (KHTML, like Gecko) Chrome/135.0.0.0 Safari/537.36" version="26.2.9">
  <diagram name="Page-1" id="c4acf3e9-155e-7222-9cf6-157b1a14988f">
    <mxGraphModel dx="2510" dy="3243" grid="1" gridSize="10" guides="1" tooltips="1" connect="1" arrows="1" fold="1" page="1" pageScale="1" pageWidth="850" pageHeight="1100" background="none" math="0" shadow="0">
      <root>
        <mxCell id="0" />
        <mxCell id="1" parent="0" />
        <mxCell id="_Dmv3MYw5evd5DSL76aV-1" value="&lt;p style=&quot;margin:0px;margin-top:4px;text-align:center;&quot;&gt;&lt;b&gt;RealArsenalLM:ZakładBukmacherski&lt;/b&gt;&lt;/p&gt;&lt;hr size=&quot;1&quot; style=&quot;border-style:solid;&quot;&gt;&lt;p style=&quot;margin:0px;margin-left:4px;&quot;&gt;nazwa = Liga Mistrzow Real Madryt vs Arsenal&lt;/p&gt;&lt;p style=&quot;margin:0px;margin-left:4px;&quot;&gt;rodzaj = piłka nożna&lt;/p&gt;&lt;p style=&quot;margin:0px;margin-left:4px;&quot;&gt;dataKoncaObstawiania = 08.04.2025, 20:00&lt;/p&gt;&lt;p style=&quot;margin:0px;margin-left:4px;&quot;&gt;idZakladu= 022&lt;/p&gt;&lt;p style=&quot;margin:0px;margin-left:4px;&quot;&gt;&lt;br&gt;&lt;/p&gt;" style="verticalAlign=top;align=left;overflow=fill;html=1;whiteSpace=wrap;" vertex="1" parent="1">
          <mxGeometry x="245" y="-870" width="290" height="100" as="geometry" />
        </mxCell>
        <mxCell id="_Dmv3MYw5evd5DSL76aV-3" value="&lt;p style=&quot;margin:0px;margin-top:4px;text-align:center;&quot;&gt;&lt;b&gt;TadeuszKowalski:Klient&lt;/b&gt;&lt;/p&gt;&lt;hr size=&quot;1&quot; style=&quot;border-style:solid;&quot;&gt;&lt;p style=&quot;margin:0px;margin-left:4px;&quot;&gt;dataUr = 04.12.1999&lt;/p&gt;&lt;p style=&quot;margin:0px;margin-left:4px;&quot;&gt;pesel = 99182005241&lt;/p&gt;&lt;p style=&quot;margin:0px;margin-left:4px;&quot;&gt;imie = Tadeusz&lt;/p&gt;&lt;p style=&quot;margin:0px;margin-left:4px;&quot;&gt;nazwisko = Kowalski&lt;/p&gt;" style="verticalAlign=top;align=left;overflow=fill;html=1;whiteSpace=wrap;" vertex="1" parent="1">
          <mxGeometry x="-335" y="-620" width="160" height="100" as="geometry" />
        </mxCell>
        <mxCell id="_Dmv3MYw5evd5DSL76aV-14" value="&lt;p style=&quot;margin:0px;margin-top:4px;text-align:center;&quot;&gt;&lt;b&gt;TKKarta:KartaKredytowa&lt;/b&gt;&lt;/p&gt;&lt;hr size=&quot;1&quot; style=&quot;border-style:solid;&quot;&gt;&lt;p style=&quot;margin:0px;margin-left:4px;&quot;&gt;typKarty = Visa&lt;/p&gt;&lt;p style=&quot;margin:0px;margin-left:4px;&quot;&gt;nrKarty = 4520-1070-5096-1884&lt;/p&gt;&lt;p style=&quot;margin:0px;margin-left:4px;&quot;&gt;dataWaznosci = 05.26&lt;/p&gt;&lt;p style=&quot;margin:0px;margin-left:4px;&quot;&gt;limit = 5000&lt;/p&gt;&lt;p style=&quot;margin:0px;margin-left:4px;&quot;&gt;&lt;br&gt;&lt;/p&gt;" style="verticalAlign=top;align=left;overflow=fill;html=1;whiteSpace=wrap;" vertex="1" parent="1">
          <mxGeometry x="-590" y="-620" width="190" height="100" as="geometry" />
        </mxCell>
        <mxCell id="_Dmv3MYw5evd5DSL76aV-18" value="&lt;p style=&quot;margin:0px;margin-top:4px;text-align:center;&quot;&gt;&lt;b&gt;RealMadryt:Kurs&lt;/b&gt;&lt;/p&gt;&lt;hr size=&quot;1&quot; style=&quot;border-style:solid;&quot;&gt;&lt;p style=&quot;margin:0px;margin-left:4px;&quot;&gt;nazwaZwyciezcy: Real Madryt&lt;/p&gt;&lt;p style=&quot;margin:0px;margin-left:4px;&quot;&gt;akrualnyKurs: 1,12&lt;/p&gt;" style="verticalAlign=top;align=left;overflow=fill;html=1;whiteSpace=wrap;" vertex="1" parent="1">
          <mxGeometry x="635" y="-800" width="200" height="90" as="geometry" />
        </mxCell>
        <mxCell id="_Dmv3MYw5evd5DSL76aV-22" value="&lt;p style=&quot;margin:0px;margin-top:4px;text-align:center;&quot;&gt;&lt;b&gt;BlackJack:GraLosowa&lt;/b&gt;&lt;/p&gt;&lt;hr size=&quot;1&quot; style=&quot;border-style:solid;&quot;&gt;&lt;p style=&quot;margin:0px;margin-left:4px;&quot;&gt;nazwa = BlackJack&lt;/p&gt;&lt;p style=&quot;margin:0px;margin-left:4px;&quot;&gt;rodzaj = karciana&lt;/p&gt;&lt;p style=&quot;margin:0px;margin-left:4px;&quot;&gt;stawkaWejscia = 20,50&lt;/p&gt;&lt;p style=&quot;margin:0px;margin-left:4px;&quot;&gt;idGry = 011&lt;/p&gt;&lt;p style=&quot;margin:0px;margin-left:4px;&quot;&gt;idKrupiera = 02&lt;/p&gt;" style="verticalAlign=top;align=left;overflow=fill;html=1;whiteSpace=wrap;" vertex="1" parent="1">
          <mxGeometry x="-350" y="-870" width="190" height="120" as="geometry" />
        </mxCell>
        <mxCell id="_Dmv3MYw5evd5DSL76aV-33" value="" style="endArrow=none;html=1;rounded=0;exitX=1;exitY=0.5;exitDx=0;exitDy=0;entryX=0;entryY=0.5;entryDx=0;entryDy=0;" edge="1" parent="1" source="_Dmv3MYw5evd5DSL76aV-14" target="_Dmv3MYw5evd5DSL76aV-3">
          <mxGeometry width="50" height="50" relative="1" as="geometry">
            <mxPoint x="-300" y="-450" as="sourcePoint" />
            <mxPoint x="-250" y="-500" as="targetPoint" />
            <Array as="points" />
          </mxGeometry>
        </mxCell>
        <mxCell id="_Dmv3MYw5evd5DSL76aV-34" value="" style="endArrow=none;html=1;rounded=0;exitX=0.5;exitY=0;exitDx=0;exitDy=0;entryX=0.5;entryY=1;entryDx=0;entryDy=0;" edge="1" parent="1" source="_Dmv3MYw5evd5DSL76aV-3" target="_Dmv3MYw5evd5DSL76aV-22">
          <mxGeometry width="50" height="50" relative="1" as="geometry">
            <mxPoint x="-290" y="-630" as="sourcePoint" />
            <mxPoint x="-240" y="-680" as="targetPoint" />
          </mxGeometry>
        </mxCell>
        <mxCell id="_Dmv3MYw5evd5DSL76aV-35" value="" style="endArrow=none;html=1;rounded=0;entryX=0.5;entryY=0;entryDx=0;entryDy=0;exitX=0.5;exitY=1;exitDx=0;exitDy=0;" edge="1" parent="1" source="_Dmv3MYw5evd5DSL76aV-48" target="_Dmv3MYw5evd5DSL76aV-22">
          <mxGeometry width="50" height="50" relative="1" as="geometry">
            <mxPoint x="-250" y="-985" as="sourcePoint" />
            <mxPoint x="-260" y="-1030" as="targetPoint" />
            <Array as="points" />
          </mxGeometry>
        </mxCell>
        <mxCell id="_Dmv3MYw5evd5DSL76aV-36" value="&lt;p style=&quot;margin:0px;margin-top:4px;text-align:center;&quot;&gt;&lt;b&gt;TadeuszKowalski:Klient&lt;/b&gt;&lt;/p&gt;&lt;hr size=&quot;1&quot; style=&quot;border-style:solid;&quot;&gt;&lt;p style=&quot;margin:0px;margin-left:4px;&quot;&gt;dataUr = 04.12.1999&lt;/p&gt;&lt;p style=&quot;margin:0px;margin-left:4px;&quot;&gt;pesel = 99182005241&lt;/p&gt;&lt;p style=&quot;margin:0px;margin-left:4px;&quot;&gt;imie = Tadeusz&lt;/p&gt;&lt;p style=&quot;margin:0px;margin-left:4px;&quot;&gt;nazwisko = Kowalski&lt;/p&gt;" style="verticalAlign=top;align=left;overflow=fill;html=1;whiteSpace=wrap;" vertex="1" parent="1">
          <mxGeometry x="310" y="-660" width="160" height="100" as="geometry" />
        </mxCell>
        <mxCell id="_Dmv3MYw5evd5DSL76aV-37" value="&lt;p style=&quot;margin:0px;margin-top:4px;text-align:center;&quot;&gt;&lt;b&gt;TKKarta:KartaKredytowa&lt;/b&gt;&lt;/p&gt;&lt;hr size=&quot;1&quot; style=&quot;border-style:solid;&quot;&gt;&lt;p style=&quot;margin:0px;margin-left:4px;&quot;&gt;typKarty = Visa&lt;/p&gt;&lt;p style=&quot;margin:0px;margin-left:4px;&quot;&gt;nrKarty = 4520-1070-5096-1884&lt;/p&gt;&lt;p style=&quot;margin:0px;margin-left:4px;&quot;&gt;dataWaznosci = 05.26&lt;/p&gt;&lt;p style=&quot;margin:0px;margin-left:4px;&quot;&gt;limit = 5000&lt;/p&gt;&lt;p style=&quot;margin:0px;margin-left:4px;&quot;&gt;&lt;br&gt;&lt;/p&gt;" style="verticalAlign=top;align=left;overflow=fill;html=1;whiteSpace=wrap;" vertex="1" parent="1">
          <mxGeometry x="30" y="-660" width="190" height="100" as="geometry" />
        </mxCell>
        <mxCell id="_Dmv3MYw5evd5DSL76aV-38" value="" style="endArrow=none;html=1;rounded=0;exitX=1;exitY=0.5;exitDx=0;exitDy=0;entryX=0;entryY=0.5;entryDx=0;entryDy=0;" edge="1" parent="1" source="_Dmv3MYw5evd5DSL76aV-37" target="_Dmv3MYw5evd5DSL76aV-36">
          <mxGeometry width="50" height="50" relative="1" as="geometry">
            <mxPoint x="345" y="-490" as="sourcePoint" />
            <mxPoint x="395" y="-540" as="targetPoint" />
            <Array as="points" />
          </mxGeometry>
        </mxCell>
        <mxCell id="_Dmv3MYw5evd5DSL76aV-39" value="&lt;p style=&quot;margin:0px;margin-top:4px;text-align:center;&quot;&gt;&lt;b&gt;Arsenal:Kurs&lt;/b&gt;&lt;/p&gt;&lt;hr size=&quot;1&quot; style=&quot;border-style:solid;&quot;&gt;&lt;p style=&quot;margin:0px;margin-left:4px;&quot;&gt;nazwaZwyciezcy: Arsenal&lt;/p&gt;&lt;p style=&quot;margin:0px;margin-left:4px;&quot;&gt;akrualnyKurs: 2,36&lt;/p&gt;" style="verticalAlign=top;align=left;overflow=fill;html=1;whiteSpace=wrap;" vertex="1" parent="1">
          <mxGeometry x="635" y="-920" width="200" height="90" as="geometry" />
        </mxCell>
        <mxCell id="_Dmv3MYw5evd5DSL76aV-40" value="" style="endArrow=none;html=1;rounded=0;exitX=0.5;exitY=0;exitDx=0;exitDy=0;entryX=0.5;entryY=1;entryDx=0;entryDy=0;" edge="1" parent="1" source="_Dmv3MYw5evd5DSL76aV-36" target="_Dmv3MYw5evd5DSL76aV-1">
          <mxGeometry width="50" height="50" relative="1" as="geometry">
            <mxPoint x="495" y="-670" as="sourcePoint" />
            <mxPoint x="545" y="-720" as="targetPoint" />
          </mxGeometry>
        </mxCell>
        <mxCell id="_Dmv3MYw5evd5DSL76aV-41" value="" style="endArrow=none;html=1;rounded=0;exitX=1;exitY=0.75;exitDx=0;exitDy=0;entryX=0;entryY=0.5;entryDx=0;entryDy=0;" edge="1" parent="1" source="_Dmv3MYw5evd5DSL76aV-1" target="_Dmv3MYw5evd5DSL76aV-18">
          <mxGeometry width="50" height="50" relative="1" as="geometry">
            <mxPoint x="555" y="-680" as="sourcePoint" />
            <mxPoint x="605" y="-730" as="targetPoint" />
          </mxGeometry>
        </mxCell>
        <mxCell id="_Dmv3MYw5evd5DSL76aV-42" value="" style="endArrow=none;html=1;rounded=0;exitX=1;exitY=0.25;exitDx=0;exitDy=0;entryX=0;entryY=0.5;entryDx=0;entryDy=0;" edge="1" parent="1" source="_Dmv3MYw5evd5DSL76aV-1" target="_Dmv3MYw5evd5DSL76aV-39">
          <mxGeometry width="50" height="50" relative="1" as="geometry">
            <mxPoint x="575" y="-830" as="sourcePoint" />
            <mxPoint x="625" y="-880" as="targetPoint" />
          </mxGeometry>
        </mxCell>
        <mxCell id="_Dmv3MYw5evd5DSL76aV-44" value="&lt;p style=&quot;margin:0px;margin-top:4px;text-align:center;&quot;&gt;&lt;b&gt;BlackJackTKW:Wyplac&lt;/b&gt;&lt;/p&gt;&lt;hr size=&quot;1&quot; style=&quot;border-style:solid;&quot;&gt;&lt;p style=&quot;margin:0px;margin-left:4px;&quot;&gt;nrTransakcji: F/221&lt;/p&gt;&lt;p style=&quot;margin:0px;margin-left:4px;&quot;&gt;dataTransakcji: 09.04.2025, 11:45&lt;/p&gt;&lt;p style=&quot;margin:0px;margin-left:4px;&quot;&gt;&lt;br&gt;&lt;/p&gt;&lt;p style=&quot;margin:0px;margin-left:4px;&quot;&gt;&lt;br&gt;&lt;/p&gt;" style="verticalAlign=top;align=left;overflow=fill;html=1;whiteSpace=wrap;" vertex="1" parent="1">
          <mxGeometry x="-660" y="-1040" width="220" height="70" as="geometry" />
        </mxCell>
        <mxCell id="_Dmv3MYw5evd5DSL76aV-46" value="&lt;p style=&quot;margin:0px;margin-top:4px;text-align:center;&quot;&gt;&lt;b&gt;RealArseTKW:Wyplac&lt;/b&gt;&lt;/p&gt;&lt;hr size=&quot;1&quot; style=&quot;border-style:solid;&quot;&gt;&lt;p style=&quot;margin:0px;margin-left:4px;&quot;&gt;nrTransakcji: F/937&lt;/p&gt;&lt;p style=&quot;margin:0px;margin-left:4px;&quot;&gt;dataTransakcji: 09.04.2025, 8:26&lt;/p&gt;&lt;p style=&quot;margin:0px;margin-left:4px;&quot;&gt;&lt;br&gt;&lt;/p&gt;&lt;p style=&quot;margin:0px;margin-left:4px;&quot;&gt;&lt;br&gt;&lt;/p&gt;" style="verticalAlign=top;align=left;overflow=fill;html=1;whiteSpace=wrap;" vertex="1" parent="1">
          <mxGeometry x="15" y="-1020" width="220" height="70" as="geometry" />
        </mxCell>
        <mxCell id="_Dmv3MYw5evd5DSL76aV-47" value="" style="endArrow=none;html=1;rounded=0;exitX=0.5;exitY=0;exitDx=0;exitDy=0;entryX=0.5;entryY=1;entryDx=0;entryDy=0;" edge="1" parent="1" source="_Dmv3MYw5evd5DSL76aV-1" target="_Dmv3MYw5evd5DSL76aV-52">
          <mxGeometry width="50" height="50" relative="1" as="geometry">
            <mxPoint x="400" y="-650" as="sourcePoint" />
            <mxPoint x="425" y="-980" as="targetPoint" />
          </mxGeometry>
        </mxCell>
        <mxCell id="_Dmv3MYw5evd5DSL76aV-48" value="&lt;p style=&quot;margin:0px;margin-top:4px;text-align:center;&quot;&gt;&lt;b&gt;BlackJackTKR:Rozlicz&lt;/b&gt;&lt;/p&gt;&lt;hr size=&quot;1&quot; style=&quot;border-style:solid;&quot;&gt;&lt;p style=&quot;margin:0px;margin-left:4px;&quot;&gt;czyWygrana = 1&lt;/p&gt;&lt;p style=&quot;margin:0px;margin-left:4px;&quot;&gt;&lt;br&gt;&lt;/p&gt;&lt;p style=&quot;margin:0px;margin-left:4px;&quot;&gt;&lt;br&gt;&lt;/p&gt;" style="verticalAlign=top;align=left;overflow=fill;html=1;whiteSpace=wrap;" vertex="1" parent="1">
          <mxGeometry x="-365" y="-1040" width="220" height="70" as="geometry" />
        </mxCell>
        <mxCell id="_Dmv3MYw5evd5DSL76aV-50" value="" style="endArrow=none;html=1;rounded=0;entryX=0;entryY=0.5;entryDx=0;entryDy=0;exitX=1;exitY=0.5;exitDx=0;exitDy=0;" edge="1" parent="1" source="_Dmv3MYw5evd5DSL76aV-44" target="_Dmv3MYw5evd5DSL76aV-48">
          <mxGeometry width="50" height="50" relative="1" as="geometry">
            <mxPoint x="-245" y="-960" as="sourcePoint" />
            <mxPoint x="-245" y="-860" as="targetPoint" />
            <Array as="points" />
          </mxGeometry>
        </mxCell>
        <mxCell id="_Dmv3MYw5evd5DSL76aV-51" value="" style="endArrow=none;html=1;rounded=0;entryX=0.75;entryY=1;entryDx=0;entryDy=0;exitX=0.5;exitY=0;exitDx=0;exitDy=0;" edge="1" parent="1" source="_Dmv3MYw5evd5DSL76aV-14" target="_Dmv3MYw5evd5DSL76aV-44">
          <mxGeometry width="50" height="50" relative="1" as="geometry">
            <mxPoint x="-450" y="-810" as="sourcePoint" />
            <mxPoint x="-400" y="-860" as="targetPoint" />
          </mxGeometry>
        </mxCell>
        <mxCell id="_Dmv3MYw5evd5DSL76aV-52" value="&lt;p style=&quot;margin:0px;margin-top:4px;text-align:center;&quot;&gt;&lt;b&gt;RealArseTKR:Rozlicz&lt;/b&gt;&lt;/p&gt;&lt;hr size=&quot;1&quot; style=&quot;border-style:solid;&quot;&gt;&lt;p style=&quot;margin:0px;margin-left:4px;&quot;&gt;czyWygrana = 1&lt;/p&gt;&lt;p style=&quot;margin:0px;margin-left:4px;&quot;&gt;&lt;br&gt;&lt;/p&gt;&lt;p style=&quot;margin:0px;margin-left:4px;&quot;&gt;&lt;br&gt;&lt;/p&gt;" style="verticalAlign=top;align=left;overflow=fill;html=1;whiteSpace=wrap;" vertex="1" parent="1">
          <mxGeometry x="280" y="-1010" width="220" height="50" as="geometry" />
        </mxCell>
        <mxCell id="_Dmv3MYw5evd5DSL76aV-53" value="" style="endArrow=none;html=1;rounded=0;exitX=0.5;exitY=0;exitDx=0;exitDy=0;entryX=0.5;entryY=1;entryDx=0;entryDy=0;" edge="1" parent="1" source="_Dmv3MYw5evd5DSL76aV-37" target="_Dmv3MYw5evd5DSL76aV-46">
          <mxGeometry width="50" height="50" relative="1" as="geometry">
            <mxPoint x="400" y="-650" as="sourcePoint" />
            <mxPoint x="400" y="-760" as="targetPoint" />
          </mxGeometry>
        </mxCell>
        <mxCell id="_Dmv3MYw5evd5DSL76aV-54" value="" style="endArrow=none;html=1;rounded=0;exitX=1;exitY=0.5;exitDx=0;exitDy=0;entryX=0;entryY=0.5;entryDx=0;entryDy=0;" edge="1" parent="1" source="_Dmv3MYw5evd5DSL76aV-46" target="_Dmv3MYw5evd5DSL76aV-52">
          <mxGeometry width="50" height="50" relative="1" as="geometry">
            <mxPoint x="160" y="-650" as="sourcePoint" />
            <mxPoint x="135" y="-940" as="targetPoint" />
          </mxGeometry>
        </mxCell>
      </root>
    </mxGraphModel>
  </diagram>
</mxfile>
